<svg width="30" height="30" viewBox="0 0 30 30" fill="none" xmlns="http://www.w3.org/2000/svg">
<path d="M0.75 29.25H6.6875L24.1992 11.7384L18.2617 5.80086L0.75 23.3125V29.25ZM3.91667 24.6267L18.2617 10.2817L19.7183 11.7384L5.37333 26.0834H3.91667V24.6267ZM25.0858 1.20919C24.9394 1.06241 24.7654 0.94596 24.5738 0.866506C24.3823 0.787052 24.177 0.746155 23.9696 0.746155C23.7622 0.746155 23.5569 0.787052 23.3653 0.866506C23.1738 0.94596 22.9998 1.06241 22.8533 1.20919L19.9558 4.10669L25.8933 10.0442L28.7908 7.14669C28.9376 7.00021 29.0541 6.82622 29.1335 6.63468C29.213 6.44314 29.2539 6.23781 29.2539 6.03044C29.2539 5.82307 29.213 5.61774 29.1335 5.4262C29.0541 5.23466 28.9376 5.06067 28.7908 4.91419L25.0858 1.20919Z" fill="white"/>
</svg>
